HIERARCHY
ROOT Hips
{
	OFFSET -0.001795 -0.223333 0.028219
	CHANNELS 6 Xposition Yposition Zposition Zrotation Yrotation Xrotation 
	JOINT LeftUpLeg
	{
		OFFSET 0.069520 -0.091406 -0.006815
		CHANNELS 3 Zrotation Yrotation Xrotation
		JOINT LeftLeg
		{
			OFFSET 0.034277 -0.375199 -0.004496
			CHANNELS 3 Zrotation Yrotation Xrotation
			JOINT LeftFoot
			{
				OFFSET -0.013596 -0.397961 -0.043693
				CHANNELS 3 Zrotation Yrotation Xrotation
				JOINT LeftToe
				{
					OFFSET 0.026358 -0.055791 0.119288
					CHANNELS 3 Zrotation Yrotation Xrotation
					End Site
					{
						OFFSET 0.000000 0.000000 0.000000
					}
				}
			}
		}
	}
	JOINT RightUpLeg
	{
		OFFSET -0.067670 -0.090522 -0.004320
		CHANNELS 3 Zrotation Yrotation Xrotation
		JOINT RightLeg
		{
			OFFSET -0.038290 -0.382569 -0.008850
			CHANNELS 3 Zrotation Yrotation Xrotation
			JOINT RightFoot
			{
				OFFSET 0.015774 -0.398415 -0.042312
				CHANNELS 3 Zrotation Yrotation Xrotation
				JOINT RightToe
				{
					OFFSET -0.025372 -0.048144 0.123348
					CHANNELS 3 Zrotation Yrotation Xrotation
					End Site
					{
						OFFSET 0.000000 0.000000 0.000000
					}
				}
			}
		}
	}
	JOINT Spine
	{
		OFFSET -0.002533 0.108963 -0.026696
		CHANNELS 3 Zrotation Yrotation Xrotation
		JOINT Spine1
		{
			OFFSET 0.005487 0.135180 0.001092
			CHANNELS 3 Zrotation Yrotation Xrotation
			JOINT Spine2
			{
				OFFSET 0.001457 0.052922 0.025425
				CHANNELS 3 Zrotation Yrotation Xrotation
				JOINT Neck
				{
					OFFSET -0.002778 0.213870 -0.042857
					CHANNELS 3 Zrotation Yrotation Xrotation
					JOINT Head
					{
						OFFSET 0.005152 0.064970 0.051349
						CHANNELS 3 Zrotation Yrotation Xrotation
						End Site
						{
							OFFSET 0.000000 0.000000 0.000000
						}
					}
				}
				JOINT LeftShoulder
				{
					OFFSET 0.078845 0.121749 -0.034090
					CHANNELS 3 Zrotation Yrotation Xrotation
					JOINT LeftArm
					{
						OFFSET 0.090977 0.030469 -0.008868
						CHANNELS 3 Zrotation Yrotation Xrotation
						JOINT LeftForeArm
						{
							OFFSET 0.259612 -0.012772 -0.027456
							CHANNELS 3 Zrotation Yrotation Xrotation
							JOINT LeftHand
							{
								OFFSET 0.249234 0.008986 -0.001171
								CHANNELS 3 Zrotation Yrotation Xrotation
								End Site
								{
									OFFSET 0.000000 0.000000 0.000000
								}
							}
						}
					}
				}
				JOINT RightShoulder
				{
					OFFSET -0.081759 0.118833 -0.038615
					CHANNELS 3 Zrotation Yrotation Xrotation
					JOINT RightArm
					{
						OFFSET -0.096012 0.032551 -0.009143
						CHANNELS 3 Zrotation Yrotation Xrotation
						JOINT RightForeArm
						{
							OFFSET -0.253742 -0.013329 -0.021401
							CHANNELS 3 Zrotation Yrotation Xrotation
							JOINT RightHand
							{
								OFFSET -0.255298 0.007772 -0.005559
								CHANNELS 3 Zrotation Yrotation Xrotation
								End Site
								{
									OFFSET 0.000000 0.000000 0.000000
								}
							}
						}
					}
				}
			}
		}
	}
}
MOTION
Frames: 16
Frame Time: 0.050000
-0.009843 0.956201 -0.075339 -7.161901 14.591599 13.971022 12.754611 -0.984422 -17.316150 7.107167 0.092677 -8.054333 -8.643597 -3.626836 19.624081 0.000000 0.000000 0.000000 1.531842 1.284199 -12.588904 -1.262602 -0.017008 -3.494836 -9.137806 -20.051215 16.299797 0.000000 0.000000 0.000000 -7.440320 0.418651 4.134400 -6.770795 2.910103 -2.064418 4.533887 8.314401 6.629695 -0.152791 1.600609 -7.904211 0.000000 0.000000 0.000000 4.849311 -13.370153 4.621703 -21.191446 -33.605329 1.468511 -1.951798 -67.030794 -0.447103 0.000000 0.000000 0.000000 -16.056089 29.568814 6.729310 6.597056 42.311579 1.325372 -27.234640 64.300707 -11.322195 0.000000 0.000000 0.000000 
-0.009502 0.956965 -0.075306 -7.101169 15.708081 14.070452 12.782879 -1.047882 -17.653570 6.879645 0.102000 -8.080167 -8.855566 -3.763287 19.631130 0.000000 0.000000 0.000000 1.551149 1.303363 -12.903323 -1.413586 0.021463 -3.108990 -9.498505 -20.553329 16.179613 0.000000 0.000000 0.000000 -7.626693 0.424082 4.079092 -6.295004 2.705275 -1.783805 4.762451 8.682181 6.566942 0.186209 1.447062 -8.055680 0.000000 0.000000 0.000000 6.327466 -13.653521 4.891514 -18.675151 -33.639168 0.888984 7.174772 -67.137040 -6.885199 0.000000 0.000000 0.000000 -17.460617 30.007774 6.388703 6.905561 42.888832 1.672683 -33.691967 65.412668 -15.427499 0.000000 0.000000 0.000000 
-0.008421 0.957427 -0.074596 -7.060796 16.173426 13.918540 12.749289 -1.069265 -17.623238 6.938973 0.095520 -8.008983 -9.036806 -4.068219 19.441071 0.000000 0.000000 0.000000 1.492888 1.283973 -12.759954 -1.683857 0.072253 -2.701628 -9.258038 -20.110293 15.870019 0.000000 0.000000 0.000000 -7.614254 0.415997 4.044831 -6.278674 2.692928 -1.642605 4.973427 9.131691 6.420679 0.387743 1.093221 -6.624942 0.000000 0.000000 0.000000 7.071729 -13.572302 4.984026 -16.631294 -33.429159 0.438387 14.405638 -66.726099 -11.902505 0.000000 0.000000 0.000000 -17.317165 30.107350 6.450538 8.001787 43.053931 2.115940 -38.140959 67.981799 -19.033721 0.000000 0.000000 0.000000 
-0.006862 0.957460 -0.073470 -7.026558 17.215374 13.746425 12.392911 -1.139380 -17.934466 7.134511 0.069590 -7.721751 -9.528584 -4.692008 19.340092 0.000000 0.000000 0.000000 1.517498 1.259677 -12.540686 -1.913602 0.132193 -2.126675 -9.555392 -20.498811 15.876317 0.000000 0.000000 0.000000 -7.659730 0.403481 4.092512 -6.103850 2.611869 -1.475732 5.405137 9.280299 6.635047 0.330807 1.015876 -5.773175 0.000000 0.000000 0.000000 8.300417 -13.791420 5.212106 -15.110452 -33.506047 0.045474 24.088371 -64.674421 -18.034108 0.000000 0.000000 0.000000 -17.449824 29.921552 6.309745 10.507270 42.093148 2.873369 -44.671646 71.023665 -24.553383 0.000000 0.000000 0.000000 
-0.005110 0.957475 -0.072442 -6.908774 17.916369 13.513953 12.194732 -1.175035 -17.874666 7.181768 0.059250 -7.597748 -9.550046 -4.571991 19.356736 0.000000 0.000000 0.000000 1.307988 1.193546 -11.948056 -2.198138 0.182231 -1.836153 -9.400270 -20.170417 15.634088 0.000000 0.000000 0.000000 -7.816667 0.398584 3.890159 -5.952884 2.540167 -1.287803 5.749501 9.363171 6.694318 0.260284 0.955485 -5.078060 0.000000 0.000000 0.000000 8.446114 -13.680084 5.216218 -13.922785 -34.903690 -0.232060 28.772088 -60.269156 -19.446791 0.000000 0.000000 0.000000 -16.020329 29.876834 6.737417 12.390904 41.290695 3.286012 -48.652937 73.864967 -28.809508 0.000000 0.000000 0.000000 
-0.003474 0.957363 -0.071945 -6.724326 18.247162 13.399890 11.699926 -1.214862 -18.088217 7.495044 0.003901 -7.002837 -10.096612 -5.537890 19.075335 0.000000 0.000000 0.000000 1.001969 1.149913 -11.689207 -2.139406 0.199136 -1.442420 -9.644174 -20.611274 15.414724 0.000000 0.000000 0.000000 -7.983058 0.400913 3.782986 -6.119988 2.594497 -0.847484 6.052418 9.234654 6.585220 0.616803 0.566692 -4.428520 0.000000 0.000000 0.000000 8.432813 -14.091412 5.298899 -13.693040 -36.514606 -0.299836 31.119191 -55.039958 -18.669243 0.000000 0.000000 0.000000 -14.849014 29.664892 7.057202 13.994264 41.115290 3.665592 -50.270919 76.225933 -31.370588 0.000000 0.000000 0.000000 
-0.002215 0.957280 -0.072038 -6.465068 18.869280 13.623288 11.299841 -1.282203 -18.488756 7.456419 0.011824 -7.062951 -10.512523 -5.454479 20.037488 0.000000 0.000000 0.000000 0.701874 1.130372 -11.798735 -2.153386 0.213993 -1.241127 -9.883063 -20.970868 15.359433 0.000000 0.000000 0.000000 -7.916074 0.394818 3.715248 -6.387456 2.673708 -0.160591 6.127370 8.847688 6.041738 0.415706 0.692561 -4.426447 0.000000 0.000000 0.000000 8.478040 -14.533251 5.396591 -13.359254 -39.780257 -0.419474 30.586581 -47.850877 -15.428128 0.000000 0.000000 0.000000 -14.428920 29.973105 7.321817 14.981706 41.371886 3.976650 -49.062742 77.815744 -31.356422 0.000000 0.000000 0.000000 
-0.001367 0.956732 -0.072440 -6.180032 19.105781 13.571669 11.138685 -1.306733 -18.670611 6.860579 0.005556 -6.695606 -10.538607 -5.272033 20.330919 0.000000 0.000000 0.000000 0.483935 1.116051 -11.850118 -2.370896 0.262744 -0.826823 -9.946634 -21.171723 14.822322 0.000000 0.000000 0.000000 -8.025716 0.401355 3.814379 -6.509434 2.704598 0.331910 6.230217 8.537356 5.667136 0.079628 0.674125 -3.176679 0.000000 0.000000 0.000000 7.913985 -15.104434 5.449748 -14.389832 -41.448924 -0.098018 30.473743 -44.023871 -13.854926 0.000000 0.000000 0.000000 -13.700496 30.407686 7.717842 15.258274 42.092157 4.116626 -44.560619 77.928971 -27.920895 0.000000 0.000000 0.000000 
-0.000975 0.956388 -0.073009 -6.030790 19.034386 13.600859 10.802513 -1.325911 -18.826408 6.915194 -0.016863 -6.424918 -10.742674 -5.426773 20.598231 0.000000 0.000000 0.000000 0.238521 1.108820 -12.011272 -2.293287 0.271055 -0.482977 -9.865007 -21.028092 14.809856 0.000000 0.000000 0.000000 -8.058372 0.411437 4.192595 -6.791804 2.817315 0.547130 6.312273 8.629308 5.448148 -0.199166 0.907612 -3.357761 0.000000 0.000000 0.000000 7.212372 -15.339564 5.425264 -15.591202 -42.802868 0.283029 28.360566 -43.472696 -12.607588 0.000000 0.000000 0.000000 -13.286661 30.656321 7.956316 14.900893 43.287182 4.190283 -38.419793 76.154928 -22.326884 0.000000 0.000000 0.000000 
-0.000825 0.956046 -0.073526 -6.199487 18.754998 13.995329 10.848288 -1.338060 -19.241542 6.729514 -0.024784 -6.217553 -10.375285 -5.174529 20.221898 0.000000 0.000000 0.000000 0.260322 1.148262 -12.511030 -2.443082 0.281177 -0.603107 -9.793290 -20.832589 15.265367 0.000000 0.000000 0.000000 -7.833473 0.414027 4.255689 -6.982137 2.896184 0.503200 6.126575 8.768370 5.138949 -0.477471 1.069213 -3.213606 0.000000 0.000000 0.000000 5.691076 -15.684026 5.338323 -18.104686 -42.745652 1.132496 25.199355 -45.448835 -11.714290 0.000000 0.000000 0.000000 -13.379648 30.838922 8.029258 14.524286 43.861547 4.186295 -34.986126 74.069014 -18.975904 0.000000 0.000000 0.000000 
-0.000906 0.955867 -0.073662 -6.231497 18.649614 14.209833 10.540969 -1.365289 -19.499583 7.148642 -0.070181 -5.857067 -10.340783 -5.497318 19.666521 0.000000 0.000000 0.000000 0.241759 1.184661 -13.067845 -2.519014 0.306518 -0.283289 -9.716927 -20.680446 15.373282 0.000000 0.000000 0.000000 -7.722860 0.417595 4.376089 -7.052805 2.902648 1.329843 5.937735 8.991545 4.617139 -0.389840 0.937283 -2.954281 0.000000 0.000000 0.000000 3.756337 -15.573704 5.075397 -21.272635 -40.861918 2.085163 22.032900 -51.484325 -11.943189 0.000000 0.000000 0.000000 -12.971385 30.361908 8.063797 14.010437 44.084597 4.044201 -31.151490 72.315854 -15.591003 0.000000 0.000000 0.000000 
-0.001064 0.955728 -0.073234 -6.334104 18.406429 14.384314 10.795704 -1.354931 -19.724113 7.011888 -0.127391 -5.057682 -9.800267 -5.673085 18.176678 0.000000 0.000000 0.000000 0.541313 1.227002 -13.279951 -2.786442 0.321725 -0.569693 -9.660868 -20.634712 15.258960 0.000000 0.000000 0.000000 -7.511960 0.412068 4.562075 -7.249674 2.984159 1.622016 5.578298 9.419157 4.622032 -0.249195 0.846067 -3.009177 0.000000 0.000000 0.000000 1.862829 -14.398525 4.476520 -24.280896 -38.628691 2.764224 16.080125 -59.811751 -11.000084 0.000000 0.000000 0.000000 -13.131845 29.180787 7.653340 14.821513 43.012286 4.191463 -29.540839 72.979868 -14.358148 0.000000 0.000000 0.000000 
-0.001336 0.955503 -0.072488 -6.354640 18.430426 14.604278 10.897926 -1.378752 -20.216005 6.894304 -0.177461 -4.365425 -9.679679 -5.867135 17.615392 0.000000 0.000000 0.000000 0.486607 1.245239 -13.641356 -2.741544 0.307541 -0.725827 -9.846112 -20.906152 15.550470 0.000000 0.000000 0.000000 -7.376316 0.408290 4.760849 -7.465513 3.070054 1.763059 5.261525 9.485193 4.859679 0.120661 0.727082 -3.731424 0.000000 0.000000 0.000000 0.644407 -13.458752 4.000460 -26.929141 -34.861494 2.958018 4.873574 -68.847153 -5.787044 0.000000 0.000000 0.000000 -13.529668 27.511432 6.991600 16.518584 41.035873 4.409636 -28.662996 75.587930 -13.999322 0.000000 0.000000 0.000000 
-0.001591 0.955654 -0.071602 -6.478366 18.645541 14.596558 11.279561 -1.372618 -20.319499 6.603646 -0.178174 -4.144996 -9.661986 -5.810117 17.629388 0.000000 0.000000 0.000000 0.415640 1.221465 -13.419383 -2.709760 0.290769 -0.973619 -9.785480 -20.636368 16.228831 0.000000 0.000000 0.000000 -7.085164 0.384222 5.231739 -7.654599 3.159497 1.233091 4.728802 9.556743 5.516000 0.424386 0.572163 -3.925768 0.000000 0.000000 0.000000 -0.592776 -11.538980 3.166909 -28.390120 -31.916624 2.837154 -19.087066 -75.337460 11.451437 0.000000 0.000000 0.000000 -13.373268 24.937213 6.200618 18.092513 38.470095 4.386087 -26.903904 79.345005 -12.948726 0.000000 0.000000 0.000000 
-0.001618 0.956023 -0.071108 -6.553301 18.351183 14.815900 11.541099 -1.363161 -20.702387 6.560982 -0.219232 -3.628026 -9.536291 -5.671992 17.634320 0.000000 0.000000 0.000000 0.311464 1.229438 -13.639052 -2.618568 0.249821 -1.472180 -9.647587 -20.281197 17.029697 0.000000 0.000000 0.000000 -7.025683 0.386271 5.467235 -7.873683 3.265004 0.815062 4.301171 9.422838 6.060635 0.414575 0.713609 -4.550157 0.000000 0.000000 0.000000 -1.502654 -9.772070 2.427529 -28.760042 -29.302755 2.514962 -46.736358 -77.909530 34.635094 0.000000 0.000000 0.000000 -13.598584 22.828380 5.469613 19.139259 36.059092 4.161862 -23.960223 83.253030 -10.852315 0.000000 0.000000 0.000000 
-0.001422 0.956476 -0.071050 -6.645758 18.354540 15.057489 11.551481 -1.383456 -21.062450 6.822660 -0.225946 -3.743229 -9.773517 -5.654918 18.257464 0.000000 0.000000 0.000000 0.152298 1.222584 -13.782350 -2.094940 0.168101 -1.893687 -9.959466 -20.662044 17.952720 0.000000 0.000000 0.000000 -7.035235 0.389681 6.102587 -7.660035 3.188704 -0.271972 3.850940 9.093883 6.855097 0.523388 0.676566 -4.687689 0.000000 0.000000 0.000000 -1.834890 -8.807500 2.051691 -28.388224 -27.663339 2.161230 -63.911411 -77.933349 49.438904 0.000000 0.000000 0.000000 -13.496441 20.681851 4.815761 20.138754 33.823438 3.891290 -18.357339 86.659273 -5.806609 0.000000 0.000000 0.000000 
